<mxfile host="app.diagrams.net" agent="Mozilla/5.0 (Windows NT 10.0; Win64; x64) AppleWebKit/537.36 (KHTML, like Gecko) Chrome/133.0.0.0 Safari/537.36" version="26.1.0">
  <diagram name="Page-1" id="I4iBSf7HecRMN5N45_ss">
    <mxGraphModel dx="683" dy="355" grid="1" gridSize="5" guides="1" tooltips="1" connect="1" arrows="1" fold="1" page="1" pageScale="1" pageWidth="3300" pageHeight="4681" math="0" shadow="0">
      <root>
        <mxCell id="0" />
        <mxCell id="1" parent="0" />
        <mxCell id="7SVz8rzK_keazNESmz3t-21" value="" style="rounded=0;whiteSpace=wrap;html=1;" vertex="1" parent="1">
          <mxGeometry x="560" y="160" width="345" height="330" as="geometry" />
        </mxCell>
        <mxCell id="7SVz8rzK_keazNESmz3t-16" style="edgeStyle=orthogonalEdgeStyle;rounded=0;orthogonalLoop=1;jettySize=auto;html=1;entryX=0;entryY=0.5;entryDx=0;entryDy=0;" edge="1" parent="1" source="7SVz8rzK_keazNESmz3t-2" target="7SVz8rzK_keazNESmz3t-14">
          <mxGeometry relative="1" as="geometry" />
        </mxCell>
        <mxCell id="7SVz8rzK_keazNESmz3t-2" value="I1" style="whiteSpace=wrap;html=1;aspect=fixed;fillColor=#fff2cc;strokeColor=#d6b656;" vertex="1" parent="1">
          <mxGeometry x="550" y="235" width="20" height="20" as="geometry" />
        </mxCell>
        <mxCell id="7SVz8rzK_keazNESmz3t-17" style="edgeStyle=orthogonalEdgeStyle;rounded=0;orthogonalLoop=1;jettySize=auto;html=1;exitX=1;exitY=0.5;exitDx=0;exitDy=0;entryX=0;entryY=0.5;entryDx=0;entryDy=0;" edge="1" parent="1" source="7SVz8rzK_keazNESmz3t-3" target="7SVz8rzK_keazNESmz3t-15">
          <mxGeometry relative="1" as="geometry">
            <Array as="points">
              <mxPoint x="610" y="280" />
              <mxPoint x="610" y="320" />
            </Array>
          </mxGeometry>
        </mxCell>
        <mxCell id="7SVz8rzK_keazNESmz3t-3" value="I2" style="whiteSpace=wrap;html=1;aspect=fixed;strokeColor=#d6b656;align=center;verticalAlign=middle;fontFamily=Helvetica;fontSize=12;fontColor=default;fillColor=#fff2cc;" vertex="1" parent="1">
          <mxGeometry x="550" y="270" width="20" height="20" as="geometry" />
        </mxCell>
        <mxCell id="7SVz8rzK_keazNESmz3t-31" style="edgeStyle=orthogonalEdgeStyle;rounded=0;orthogonalLoop=1;jettySize=auto;html=1;entryX=0;entryY=0.5;entryDx=0;entryDy=0;" edge="1" parent="1" source="7SVz8rzK_keazNESmz3t-4" target="7SVz8rzK_keazNESmz3t-30">
          <mxGeometry relative="1" as="geometry" />
        </mxCell>
        <mxCell id="7SVz8rzK_keazNESmz3t-34" style="edgeStyle=orthogonalEdgeStyle;rounded=0;orthogonalLoop=1;jettySize=auto;html=1;exitX=1;exitY=0.5;exitDx=0;exitDy=0;entryX=0;entryY=0.5;entryDx=0;entryDy=0;" edge="1" parent="1" source="7SVz8rzK_keazNESmz3t-4" target="7SVz8rzK_keazNESmz3t-33">
          <mxGeometry relative="1" as="geometry" />
        </mxCell>
        <mxCell id="7SVz8rzK_keazNESmz3t-4" value="In" style="whiteSpace=wrap;html=1;aspect=fixed;strokeColor=#d6b656;align=center;verticalAlign=middle;fontFamily=Helvetica;fontSize=12;fontColor=default;fillColor=#fff2cc;" vertex="1" parent="1">
          <mxGeometry x="550" y="350" width="20" height="20" as="geometry" />
        </mxCell>
        <mxCell id="7SVz8rzK_keazNESmz3t-5" value="O1" style="whiteSpace=wrap;html=1;aspect=fixed;fillColor=#e1d5e7;strokeColor=#9673a6;" vertex="1" parent="1">
          <mxGeometry x="890" y="190" width="20" height="20" as="geometry" />
        </mxCell>
        <mxCell id="7SVz8rzK_keazNESmz3t-6" value="O2" style="whiteSpace=wrap;html=1;aspect=fixed;strokeColor=#9673a6;align=center;verticalAlign=middle;fontFamily=Helvetica;fontSize=12;fontColor=default;fillColor=#e1d5e7;" vertex="1" parent="1">
          <mxGeometry x="890" y="230" width="20" height="20" as="geometry" />
        </mxCell>
        <mxCell id="7SVz8rzK_keazNESmz3t-7" value="Om" style="whiteSpace=wrap;html=1;aspect=fixed;strokeColor=#9673a6;align=center;verticalAlign=middle;fontFamily=Helvetica;fontSize=12;fontColor=default;fillColor=#e1d5e7;" vertex="1" parent="1">
          <mxGeometry x="890" y="350" width="20" height="20" as="geometry" />
        </mxCell>
        <mxCell id="7SVz8rzK_keazNESmz3t-22" style="edgeStyle=orthogonalEdgeStyle;rounded=0;orthogonalLoop=1;jettySize=auto;html=1;entryX=0;entryY=0.5;entryDx=0;entryDy=0;" edge="1" parent="1" source="7SVz8rzK_keazNESmz3t-10" target="7SVz8rzK_keazNESmz3t-6">
          <mxGeometry relative="1" as="geometry">
            <Array as="points">
              <mxPoint x="850" y="310" />
              <mxPoint x="850" y="240" />
            </Array>
          </mxGeometry>
        </mxCell>
        <mxCell id="7SVz8rzK_keazNESmz3t-10" value="OP2" style="rounded=0;whiteSpace=wrap;html=1;" vertex="1" parent="1">
          <mxGeometry x="680" y="280" width="60" height="60" as="geometry" />
        </mxCell>
        <mxCell id="7SVz8rzK_keazNESmz3t-13" value="" style="group" vertex="1" connectable="0" parent="1">
          <mxGeometry x="625" y="175" width="65" height="60" as="geometry" />
        </mxCell>
        <mxCell id="7SVz8rzK_keazNESmz3t-9" value="OP1" style="rounded=0;whiteSpace=wrap;html=1;" vertex="1" parent="7SVz8rzK_keazNESmz3t-13">
          <mxGeometry width="60" height="60" as="geometry" />
        </mxCell>
        <mxCell id="7SVz8rzK_keazNESmz3t-11" value="" style="whiteSpace=wrap;html=1;aspect=fixed;fillColor=#e1d5e7;strokeColor=#9673a6;" vertex="1" parent="7SVz8rzK_keazNESmz3t-13">
          <mxGeometry x="55" y="25" width="10" height="10" as="geometry" />
        </mxCell>
        <mxCell id="7SVz8rzK_keazNESmz3t-14" value="" style="whiteSpace=wrap;html=1;aspect=fixed;fillColor=#fff2cc;strokeColor=#d6b656;" vertex="1" parent="1">
          <mxGeometry x="675" y="290" width="10" height="10" as="geometry" />
        </mxCell>
        <mxCell id="7SVz8rzK_keazNESmz3t-15" value="" style="whiteSpace=wrap;html=1;aspect=fixed;fillColor=#fff2cc;strokeColor=#d6b656;" vertex="1" parent="1">
          <mxGeometry x="675" y="315" width="10" height="10" as="geometry" />
        </mxCell>
        <mxCell id="7SVz8rzK_keazNESmz3t-18" value="OP3" style="rounded=0;whiteSpace=wrap;html=1;" vertex="1" parent="1">
          <mxGeometry x="750" y="350" width="60" height="60" as="geometry" />
        </mxCell>
        <mxCell id="7SVz8rzK_keazNESmz3t-20" style="edgeStyle=orthogonalEdgeStyle;rounded=0;orthogonalLoop=1;jettySize=auto;html=1;entryX=0;entryY=0.5;entryDx=0;entryDy=0;" edge="1" parent="1" source="7SVz8rzK_keazNESmz3t-19" target="7SVz8rzK_keazNESmz3t-7">
          <mxGeometry relative="1" as="geometry" />
        </mxCell>
        <mxCell id="7SVz8rzK_keazNESmz3t-19" value="" style="whiteSpace=wrap;html=1;aspect=fixed;fillColor=#e1d5e7;strokeColor=#9673a6;" vertex="1" parent="1">
          <mxGeometry x="805" y="375" width="10" height="10" as="geometry" />
        </mxCell>
        <mxCell id="7SVz8rzK_keazNESmz3t-24" style="edgeStyle=orthogonalEdgeStyle;rounded=0;orthogonalLoop=1;jettySize=auto;html=1;entryX=0;entryY=0.5;entryDx=0;entryDy=0;" edge="1" parent="1" source="7SVz8rzK_keazNESmz3t-23" target="7SVz8rzK_keazNESmz3t-5">
          <mxGeometry relative="1" as="geometry">
            <Array as="points">
              <mxPoint x="835" y="310" />
              <mxPoint x="835" y="200" />
            </Array>
          </mxGeometry>
        </mxCell>
        <mxCell id="7SVz8rzK_keazNESmz3t-23" value="" style="whiteSpace=wrap;html=1;aspect=fixed;fillColor=#e1d5e7;strokeColor=#9673a6;" vertex="1" parent="1">
          <mxGeometry x="735" y="305" width="10" height="10" as="geometry" />
        </mxCell>
        <mxCell id="7SVz8rzK_keazNESmz3t-26" value="" style="whiteSpace=wrap;html=1;aspect=fixed;fillColor=#fff2cc;strokeColor=#d6b656;" vertex="1" parent="1">
          <mxGeometry x="705" y="275" width="10" height="10" as="geometry" />
        </mxCell>
        <mxCell id="7SVz8rzK_keazNESmz3t-28" style="edgeStyle=orthogonalEdgeStyle;rounded=0;orthogonalLoop=1;jettySize=auto;html=1;entryX=0.5;entryY=0;entryDx=0;entryDy=0;" edge="1" parent="1" source="7SVz8rzK_keazNESmz3t-11" target="7SVz8rzK_keazNESmz3t-26">
          <mxGeometry relative="1" as="geometry" />
        </mxCell>
        <mxCell id="7SVz8rzK_keazNESmz3t-30" value="" style="whiteSpace=wrap;html=1;aspect=fixed;fillColor=#fff2cc;strokeColor=#d6b656;" vertex="1" parent="1">
          <mxGeometry x="745" y="375" width="10" height="10" as="geometry" />
        </mxCell>
        <mxCell id="7SVz8rzK_keazNESmz3t-32" value="OP4" style="rounded=0;whiteSpace=wrap;html=1;" vertex="1" parent="1">
          <mxGeometry x="750" y="420" width="60" height="60" as="geometry" />
        </mxCell>
        <mxCell id="7SVz8rzK_keazNESmz3t-33" value="" style="whiteSpace=wrap;html=1;aspect=fixed;fillColor=#fff2cc;strokeColor=#d6b656;" vertex="1" parent="1">
          <mxGeometry x="745" y="445" width="10" height="10" as="geometry" />
        </mxCell>
        <mxCell id="7SVz8rzK_keazNESmz3t-35" value="" style="whiteSpace=wrap;html=1;aspect=fixed;fillColor=#e1d5e7;strokeColor=#9673a6;" vertex="1" parent="1">
          <mxGeometry x="805" y="445" width="10" height="10" as="geometry" />
        </mxCell>
      </root>
    </mxGraphModel>
  </diagram>
</mxfile>
